<?xml version="1.0" standalone="no"?>
<!DOCTYPE svg PUBLIC "-//W3C//DTD SVG 20010904//EN"
 "http://www.w3.org/TR/2001/REC-SVG-20010904/DTD/svg10.dtd">
<svg version="1.0" xmlns="http://www.w3.org/2000/svg"
 width="63.000000pt" height="62.000000pt" viewBox="0 0 63.000000 62.000000"
 preserveAspectRatio="xMidYMid meet">

<g transform="translate(0.000000,62.000000) scale(0.100000,-0.100000)"
fill="#000000" stroke="none">
<path d="M467 556 l-42 -64 -120 -4 c-109 -3 -124 -5 -167 -30 -63 -38 -93
-98 -85 -175 6 -61 41 -121 82 -143 30 -16 31 -34 5 -67 -24 -31 -26 -59 -5
-67 10 -4 27 11 51 44 l36 50 168 0 c134 0 170 3 180 15 24 29 0 35 -156 35
-85 0 -154 2 -154 5 0 3 16 30 36 60 36 54 36 54 93 57 48 3 56 6 56 23 0 15
-8 21 -32 23 -18 2 -33 6 -33 10 0 4 16 31 35 60 l36 52 59 0 c32 0 62 5 65
10 12 19 -16 40 -51 40 -19 0 -34 2 -34 6 0 3 11 22 25 42 28 42 32 67 10 76
-11 4 -28 -14 -58 -58z m-87 -121 c0 -3 -16 -30 -36 -60 l-37 -55 -98 0 c-97
0 -99 1 -99 23 0 28 46 75 86 87 31 9 184 13 184 5z m-120 -176 c0 -14 -59
-99 -68 -99 -25 2 -88 82 -77 100 8 14 145 13 145 -1z"/>
</g>
</svg>
